<?xml version="1.0" encoding="UTF-8" standalone="no"?><!DOCTYPE svg PUBLIC "-//W3C//DTD SVG 1.1//EN" "http://www.w3.org/Graphics/SVG/1.1/DTD/svg11.dtd"><svg width="128px" height="128px" version="1.1" xmlns="http://www.w3.org/2000/svg" xmlns:xlink="http://www.w3.org/1999/xlink" xml:space="preserve" xmlns:serif="http://www.serif.com/" style="fill-rule:evenodd;clip-rule:evenodd;stroke-linejoin:round;stroke-miterlimit:2;"><g transform="matrix(1.334246,0,0,1.334246,-16.054771,-10.717787)"><path d="M100,26L100,70C100,73 97,76 94,76L34,76C31,76 28,73 28,70L28,26C28,23 31,20 34,20L94,20C97,20 100,23 100,26Z" style="fill:rgb(199,232,230);"/></g><g transform="matrix(1.334246,0,0,1.334246,-16.054771,-10.717787)"><path d="M92,34L92,78C92,81 89,84 86,84L26,84C23,84 20,81 20,78L20,34C20,31 23,28 26,28L86,28C89,28 92,31 92,34Z" style="fill:rgb(92,193,187);"/></g><g transform="matrix(1.334246,0,0,1.334246,-16.054771,-10.717787)"><path d="M88,42L88,86C88,89 85,92 82,92L22,92C19,92 16,89 16,86L16,42C16,39 19,36 22,36L82,36C85,36 88,39 88,42Z" style="fill:rgb(31,143,138);"/></g><g transform="matrix(1.334246,0,0,1.334246,-16.054771,-10.717787)"><circle cx="68" cy="52" r="6" style="fill:rgb(230,255,253);"/></g><g transform="matrix(1.334246,0,0,1.334246,-16.054771,-10.717787)"><path d="M24,80L42,60L54,72L64,64L80,80L24,80Z" style="fill:rgb(230,255,253);fill-rule:nonzero;"/></g><g transform="matrix(0,-1.334246,1.334246,0,5.293168,221.44105)"><path d="M86,78L104,70L96,88L92,82L86,78Z" style="fill:rgb(15,79,76);fill-rule:nonzero;"/></g></svg>